G04 #@! TF.GenerationSoftware,KiCad,Pcbnew,5.1.5*
G04 #@! TF.CreationDate,2020-03-21T09:27:07+08:00*
G04 #@! TF.ProjectId,ece445_kicad,65636534-3435-45f6-9b69-6361642e6b69,rev?*
G04 #@! TF.SameCoordinates,Original*
G04 #@! TF.FileFunction,Legend,Top*
G04 #@! TF.FilePolarity,Positive*
%FSLAX46Y46*%
G04 Gerber Fmt 4.6, Leading zero omitted, Abs format (unit mm)*
G04 Created by KiCad (PCBNEW 5.1.5) date 2020-03-21 09:27:07*
%MOMM*%
%LPD*%
G04 APERTURE LIST*
%ADD10C,0.100000*%
%ADD11C,0.120000*%
%ADD12C,0.150000*%
G04 APERTURE END LIST*
D10*
X54902000Y-30556000D02*
X53302000Y-30556000D01*
X54902000Y-27356000D02*
X52602000Y-27356000D01*
D11*
X65420000Y-27020000D02*
X61580000Y-27020000D01*
X65420000Y-28860000D02*
X61580000Y-28860000D01*
X42478000Y-31810000D02*
X41148000Y-31810000D01*
X42478000Y-30480000D02*
X42478000Y-31810000D01*
X42478000Y-29210000D02*
X39818000Y-29210000D01*
X39818000Y-29210000D02*
X39818000Y-26610000D01*
X42478000Y-29210000D02*
X42478000Y-26610000D01*
X42478000Y-26610000D02*
X39818000Y-26610000D01*
X64980000Y-39270000D02*
X67100000Y-39270000D01*
X64980000Y-34270000D02*
X67100000Y-34270000D01*
X64980000Y-39390000D02*
X67100000Y-39390000D01*
X67100000Y-34830000D02*
X67100000Y-34270000D01*
X67100000Y-37020000D02*
X67100000Y-36289000D01*
X67100000Y-39390000D02*
X67100000Y-39180000D01*
X64980000Y-34830000D02*
X64980000Y-34270000D01*
X64980000Y-37020000D02*
X64980000Y-36289000D01*
X64980000Y-39390000D02*
X64980000Y-39180000D01*
X62685000Y-34255225D02*
X62185000Y-34255225D01*
X62435000Y-34005225D02*
X62435000Y-34505225D01*
X61244000Y-39411000D02*
X60676000Y-39411000D01*
X61478000Y-39371000D02*
X60442000Y-39371000D01*
X61637000Y-39331000D02*
X60283000Y-39331000D01*
X61765000Y-39291000D02*
X60155000Y-39291000D01*
X61875000Y-39251000D02*
X60045000Y-39251000D01*
X61971000Y-39211000D02*
X59949000Y-39211000D01*
X62058000Y-39171000D02*
X59862000Y-39171000D01*
X62138000Y-39131000D02*
X59782000Y-39131000D01*
X59920000Y-39091000D02*
X59709000Y-39091000D01*
X62211000Y-39091000D02*
X62000000Y-39091000D01*
X59920000Y-39051000D02*
X59641000Y-39051000D01*
X62279000Y-39051000D02*
X62000000Y-39051000D01*
X59920000Y-39011000D02*
X59577000Y-39011000D01*
X62343000Y-39011000D02*
X62000000Y-39011000D01*
X59920000Y-38971000D02*
X59517000Y-38971000D01*
X62403000Y-38971000D02*
X62000000Y-38971000D01*
X59920000Y-38931000D02*
X59460000Y-38931000D01*
X62460000Y-38931000D02*
X62000000Y-38931000D01*
X59920000Y-38891000D02*
X59406000Y-38891000D01*
X62514000Y-38891000D02*
X62000000Y-38891000D01*
X59920000Y-38851000D02*
X59355000Y-38851000D01*
X62565000Y-38851000D02*
X62000000Y-38851000D01*
X59920000Y-38811000D02*
X59307000Y-38811000D01*
X62613000Y-38811000D02*
X62000000Y-38811000D01*
X59920000Y-38771000D02*
X59261000Y-38771000D01*
X62659000Y-38771000D02*
X62000000Y-38771000D01*
X59920000Y-38731000D02*
X59217000Y-38731000D01*
X62703000Y-38731000D02*
X62000000Y-38731000D01*
X59920000Y-38691000D02*
X59175000Y-38691000D01*
X62745000Y-38691000D02*
X62000000Y-38691000D01*
X59920000Y-38651000D02*
X59134000Y-38651000D01*
X62786000Y-38651000D02*
X62000000Y-38651000D01*
X59920000Y-38611000D02*
X59096000Y-38611000D01*
X62824000Y-38611000D02*
X62000000Y-38611000D01*
X59920000Y-38571000D02*
X59059000Y-38571000D01*
X62861000Y-38571000D02*
X62000000Y-38571000D01*
X59920000Y-38531000D02*
X59023000Y-38531000D01*
X62897000Y-38531000D02*
X62000000Y-38531000D01*
X59920000Y-38491000D02*
X58989000Y-38491000D01*
X62931000Y-38491000D02*
X62000000Y-38491000D01*
X59920000Y-38451000D02*
X58956000Y-38451000D01*
X62964000Y-38451000D02*
X62000000Y-38451000D01*
X59920000Y-38411000D02*
X58925000Y-38411000D01*
X62995000Y-38411000D02*
X62000000Y-38411000D01*
X59920000Y-38371000D02*
X58895000Y-38371000D01*
X63025000Y-38371000D02*
X62000000Y-38371000D01*
X59920000Y-38331000D02*
X58865000Y-38331000D01*
X63055000Y-38331000D02*
X62000000Y-38331000D01*
X59920000Y-38291000D02*
X58838000Y-38291000D01*
X63082000Y-38291000D02*
X62000000Y-38291000D01*
X59920000Y-38251000D02*
X58811000Y-38251000D01*
X63109000Y-38251000D02*
X62000000Y-38251000D01*
X59920000Y-38211000D02*
X58785000Y-38211000D01*
X63135000Y-38211000D02*
X62000000Y-38211000D01*
X59920000Y-38171000D02*
X58760000Y-38171000D01*
X63160000Y-38171000D02*
X62000000Y-38171000D01*
X59920000Y-38131000D02*
X58736000Y-38131000D01*
X63184000Y-38131000D02*
X62000000Y-38131000D01*
X59920000Y-38091000D02*
X58713000Y-38091000D01*
X63207000Y-38091000D02*
X62000000Y-38091000D01*
X59920000Y-38051000D02*
X58692000Y-38051000D01*
X63228000Y-38051000D02*
X62000000Y-38051000D01*
X59920000Y-38011000D02*
X58670000Y-38011000D01*
X63250000Y-38011000D02*
X62000000Y-38011000D01*
X59920000Y-37971000D02*
X58650000Y-37971000D01*
X63270000Y-37971000D02*
X62000000Y-37971000D01*
X59920000Y-37931000D02*
X58631000Y-37931000D01*
X63289000Y-37931000D02*
X62000000Y-37931000D01*
X59920000Y-37891000D02*
X58612000Y-37891000D01*
X63308000Y-37891000D02*
X62000000Y-37891000D01*
X59920000Y-37851000D02*
X58595000Y-37851000D01*
X63325000Y-37851000D02*
X62000000Y-37851000D01*
X59920000Y-37811000D02*
X58578000Y-37811000D01*
X63342000Y-37811000D02*
X62000000Y-37811000D01*
X59920000Y-37771000D02*
X58562000Y-37771000D01*
X63358000Y-37771000D02*
X62000000Y-37771000D01*
X59920000Y-37731000D02*
X58546000Y-37731000D01*
X63374000Y-37731000D02*
X62000000Y-37731000D01*
X59920000Y-37691000D02*
X58532000Y-37691000D01*
X63388000Y-37691000D02*
X62000000Y-37691000D01*
X59920000Y-37651000D02*
X58518000Y-37651000D01*
X63402000Y-37651000D02*
X62000000Y-37651000D01*
X59920000Y-37611000D02*
X58505000Y-37611000D01*
X63415000Y-37611000D02*
X62000000Y-37611000D01*
X59920000Y-37571000D02*
X58492000Y-37571000D01*
X63428000Y-37571000D02*
X62000000Y-37571000D01*
X59920000Y-37531000D02*
X58480000Y-37531000D01*
X63440000Y-37531000D02*
X62000000Y-37531000D01*
X59920000Y-37490000D02*
X58469000Y-37490000D01*
X63451000Y-37490000D02*
X62000000Y-37490000D01*
X59920000Y-37450000D02*
X58459000Y-37450000D01*
X63461000Y-37450000D02*
X62000000Y-37450000D01*
X59920000Y-37410000D02*
X58449000Y-37410000D01*
X63471000Y-37410000D02*
X62000000Y-37410000D01*
X59920000Y-37370000D02*
X58440000Y-37370000D01*
X63480000Y-37370000D02*
X62000000Y-37370000D01*
X59920000Y-37330000D02*
X58432000Y-37330000D01*
X63488000Y-37330000D02*
X62000000Y-37330000D01*
X59920000Y-37290000D02*
X58424000Y-37290000D01*
X63496000Y-37290000D02*
X62000000Y-37290000D01*
X59920000Y-37250000D02*
X58417000Y-37250000D01*
X63503000Y-37250000D02*
X62000000Y-37250000D01*
X59920000Y-37210000D02*
X58410000Y-37210000D01*
X63510000Y-37210000D02*
X62000000Y-37210000D01*
X59920000Y-37170000D02*
X58404000Y-37170000D01*
X63516000Y-37170000D02*
X62000000Y-37170000D01*
X59920000Y-37130000D02*
X58399000Y-37130000D01*
X63521000Y-37130000D02*
X62000000Y-37130000D01*
X59920000Y-37090000D02*
X58395000Y-37090000D01*
X63525000Y-37090000D02*
X62000000Y-37090000D01*
X59920000Y-37050000D02*
X58391000Y-37050000D01*
X63529000Y-37050000D02*
X62000000Y-37050000D01*
X63533000Y-37010000D02*
X58387000Y-37010000D01*
X63536000Y-36970000D02*
X58384000Y-36970000D01*
X63538000Y-36930000D02*
X58382000Y-36930000D01*
X63539000Y-36890000D02*
X58381000Y-36890000D01*
X63540000Y-36850000D02*
X58380000Y-36850000D01*
X63540000Y-36810000D02*
X58380000Y-36810000D01*
X63580000Y-36810000D02*
G75*
G03X63580000Y-36810000I-2620000J0D01*
G01*
X55065000Y-34255225D02*
X54565000Y-34255225D01*
X54815000Y-34005225D02*
X54815000Y-34505225D01*
X53624000Y-39411000D02*
X53056000Y-39411000D01*
X53858000Y-39371000D02*
X52822000Y-39371000D01*
X54017000Y-39331000D02*
X52663000Y-39331000D01*
X54145000Y-39291000D02*
X52535000Y-39291000D01*
X54255000Y-39251000D02*
X52425000Y-39251000D01*
X54351000Y-39211000D02*
X52329000Y-39211000D01*
X54438000Y-39171000D02*
X52242000Y-39171000D01*
X54518000Y-39131000D02*
X52162000Y-39131000D01*
X52300000Y-39091000D02*
X52089000Y-39091000D01*
X54591000Y-39091000D02*
X54380000Y-39091000D01*
X52300000Y-39051000D02*
X52021000Y-39051000D01*
X54659000Y-39051000D02*
X54380000Y-39051000D01*
X52300000Y-39011000D02*
X51957000Y-39011000D01*
X54723000Y-39011000D02*
X54380000Y-39011000D01*
X52300000Y-38971000D02*
X51897000Y-38971000D01*
X54783000Y-38971000D02*
X54380000Y-38971000D01*
X52300000Y-38931000D02*
X51840000Y-38931000D01*
X54840000Y-38931000D02*
X54380000Y-38931000D01*
X52300000Y-38891000D02*
X51786000Y-38891000D01*
X54894000Y-38891000D02*
X54380000Y-38891000D01*
X52300000Y-38851000D02*
X51735000Y-38851000D01*
X54945000Y-38851000D02*
X54380000Y-38851000D01*
X52300000Y-38811000D02*
X51687000Y-38811000D01*
X54993000Y-38811000D02*
X54380000Y-38811000D01*
X52300000Y-38771000D02*
X51641000Y-38771000D01*
X55039000Y-38771000D02*
X54380000Y-38771000D01*
X52300000Y-38731000D02*
X51597000Y-38731000D01*
X55083000Y-38731000D02*
X54380000Y-38731000D01*
X52300000Y-38691000D02*
X51555000Y-38691000D01*
X55125000Y-38691000D02*
X54380000Y-38691000D01*
X52300000Y-38651000D02*
X51514000Y-38651000D01*
X55166000Y-38651000D02*
X54380000Y-38651000D01*
X52300000Y-38611000D02*
X51476000Y-38611000D01*
X55204000Y-38611000D02*
X54380000Y-38611000D01*
X52300000Y-38571000D02*
X51439000Y-38571000D01*
X55241000Y-38571000D02*
X54380000Y-38571000D01*
X52300000Y-38531000D02*
X51403000Y-38531000D01*
X55277000Y-38531000D02*
X54380000Y-38531000D01*
X52300000Y-38491000D02*
X51369000Y-38491000D01*
X55311000Y-38491000D02*
X54380000Y-38491000D01*
X52300000Y-38451000D02*
X51336000Y-38451000D01*
X55344000Y-38451000D02*
X54380000Y-38451000D01*
X52300000Y-38411000D02*
X51305000Y-38411000D01*
X55375000Y-38411000D02*
X54380000Y-38411000D01*
X52300000Y-38371000D02*
X51275000Y-38371000D01*
X55405000Y-38371000D02*
X54380000Y-38371000D01*
X52300000Y-38331000D02*
X51245000Y-38331000D01*
X55435000Y-38331000D02*
X54380000Y-38331000D01*
X52300000Y-38291000D02*
X51218000Y-38291000D01*
X55462000Y-38291000D02*
X54380000Y-38291000D01*
X52300000Y-38251000D02*
X51191000Y-38251000D01*
X55489000Y-38251000D02*
X54380000Y-38251000D01*
X52300000Y-38211000D02*
X51165000Y-38211000D01*
X55515000Y-38211000D02*
X54380000Y-38211000D01*
X52300000Y-38171000D02*
X51140000Y-38171000D01*
X55540000Y-38171000D02*
X54380000Y-38171000D01*
X52300000Y-38131000D02*
X51116000Y-38131000D01*
X55564000Y-38131000D02*
X54380000Y-38131000D01*
X52300000Y-38091000D02*
X51093000Y-38091000D01*
X55587000Y-38091000D02*
X54380000Y-38091000D01*
X52300000Y-38051000D02*
X51072000Y-38051000D01*
X55608000Y-38051000D02*
X54380000Y-38051000D01*
X52300000Y-38011000D02*
X51050000Y-38011000D01*
X55630000Y-38011000D02*
X54380000Y-38011000D01*
X52300000Y-37971000D02*
X51030000Y-37971000D01*
X55650000Y-37971000D02*
X54380000Y-37971000D01*
X52300000Y-37931000D02*
X51011000Y-37931000D01*
X55669000Y-37931000D02*
X54380000Y-37931000D01*
X52300000Y-37891000D02*
X50992000Y-37891000D01*
X55688000Y-37891000D02*
X54380000Y-37891000D01*
X52300000Y-37851000D02*
X50975000Y-37851000D01*
X55705000Y-37851000D02*
X54380000Y-37851000D01*
X52300000Y-37811000D02*
X50958000Y-37811000D01*
X55722000Y-37811000D02*
X54380000Y-37811000D01*
X52300000Y-37771000D02*
X50942000Y-37771000D01*
X55738000Y-37771000D02*
X54380000Y-37771000D01*
X52300000Y-37731000D02*
X50926000Y-37731000D01*
X55754000Y-37731000D02*
X54380000Y-37731000D01*
X52300000Y-37691000D02*
X50912000Y-37691000D01*
X55768000Y-37691000D02*
X54380000Y-37691000D01*
X52300000Y-37651000D02*
X50898000Y-37651000D01*
X55782000Y-37651000D02*
X54380000Y-37651000D01*
X52300000Y-37611000D02*
X50885000Y-37611000D01*
X55795000Y-37611000D02*
X54380000Y-37611000D01*
X52300000Y-37571000D02*
X50872000Y-37571000D01*
X55808000Y-37571000D02*
X54380000Y-37571000D01*
X52300000Y-37531000D02*
X50860000Y-37531000D01*
X55820000Y-37531000D02*
X54380000Y-37531000D01*
X52300000Y-37490000D02*
X50849000Y-37490000D01*
X55831000Y-37490000D02*
X54380000Y-37490000D01*
X52300000Y-37450000D02*
X50839000Y-37450000D01*
X55841000Y-37450000D02*
X54380000Y-37450000D01*
X52300000Y-37410000D02*
X50829000Y-37410000D01*
X55851000Y-37410000D02*
X54380000Y-37410000D01*
X52300000Y-37370000D02*
X50820000Y-37370000D01*
X55860000Y-37370000D02*
X54380000Y-37370000D01*
X52300000Y-37330000D02*
X50812000Y-37330000D01*
X55868000Y-37330000D02*
X54380000Y-37330000D01*
X52300000Y-37290000D02*
X50804000Y-37290000D01*
X55876000Y-37290000D02*
X54380000Y-37290000D01*
X52300000Y-37250000D02*
X50797000Y-37250000D01*
X55883000Y-37250000D02*
X54380000Y-37250000D01*
X52300000Y-37210000D02*
X50790000Y-37210000D01*
X55890000Y-37210000D02*
X54380000Y-37210000D01*
X52300000Y-37170000D02*
X50784000Y-37170000D01*
X55896000Y-37170000D02*
X54380000Y-37170000D01*
X52300000Y-37130000D02*
X50779000Y-37130000D01*
X55901000Y-37130000D02*
X54380000Y-37130000D01*
X52300000Y-37090000D02*
X50775000Y-37090000D01*
X55905000Y-37090000D02*
X54380000Y-37090000D01*
X52300000Y-37050000D02*
X50771000Y-37050000D01*
X55909000Y-37050000D02*
X54380000Y-37050000D01*
X55913000Y-37010000D02*
X50767000Y-37010000D01*
X55916000Y-36970000D02*
X50764000Y-36970000D01*
X55918000Y-36930000D02*
X50762000Y-36930000D01*
X55919000Y-36890000D02*
X50761000Y-36890000D01*
X55920000Y-36850000D02*
X50760000Y-36850000D01*
X55920000Y-36810000D02*
X50760000Y-36810000D01*
X55960000Y-36810000D02*
G75*
G03X55960000Y-36810000I-2620000J0D01*
G01*
X49223000Y-26635225D02*
X48723000Y-26635225D01*
X48973000Y-26385225D02*
X48973000Y-26885225D01*
X47782000Y-31791000D02*
X47214000Y-31791000D01*
X48016000Y-31751000D02*
X46980000Y-31751000D01*
X48175000Y-31711000D02*
X46821000Y-31711000D01*
X48303000Y-31671000D02*
X46693000Y-31671000D01*
X48413000Y-31631000D02*
X46583000Y-31631000D01*
X48509000Y-31591000D02*
X46487000Y-31591000D01*
X48596000Y-31551000D02*
X46400000Y-31551000D01*
X48676000Y-31511000D02*
X46320000Y-31511000D01*
X46458000Y-31471000D02*
X46247000Y-31471000D01*
X48749000Y-31471000D02*
X48538000Y-31471000D01*
X46458000Y-31431000D02*
X46179000Y-31431000D01*
X48817000Y-31431000D02*
X48538000Y-31431000D01*
X46458000Y-31391000D02*
X46115000Y-31391000D01*
X48881000Y-31391000D02*
X48538000Y-31391000D01*
X46458000Y-31351000D02*
X46055000Y-31351000D01*
X48941000Y-31351000D02*
X48538000Y-31351000D01*
X46458000Y-31311000D02*
X45998000Y-31311000D01*
X48998000Y-31311000D02*
X48538000Y-31311000D01*
X46458000Y-31271000D02*
X45944000Y-31271000D01*
X49052000Y-31271000D02*
X48538000Y-31271000D01*
X46458000Y-31231000D02*
X45893000Y-31231000D01*
X49103000Y-31231000D02*
X48538000Y-31231000D01*
X46458000Y-31191000D02*
X45845000Y-31191000D01*
X49151000Y-31191000D02*
X48538000Y-31191000D01*
X46458000Y-31151000D02*
X45799000Y-31151000D01*
X49197000Y-31151000D02*
X48538000Y-31151000D01*
X46458000Y-31111000D02*
X45755000Y-31111000D01*
X49241000Y-31111000D02*
X48538000Y-31111000D01*
X46458000Y-31071000D02*
X45713000Y-31071000D01*
X49283000Y-31071000D02*
X48538000Y-31071000D01*
X46458000Y-31031000D02*
X45672000Y-31031000D01*
X49324000Y-31031000D02*
X48538000Y-31031000D01*
X46458000Y-30991000D02*
X45634000Y-30991000D01*
X49362000Y-30991000D02*
X48538000Y-30991000D01*
X46458000Y-30951000D02*
X45597000Y-30951000D01*
X49399000Y-30951000D02*
X48538000Y-30951000D01*
X46458000Y-30911000D02*
X45561000Y-30911000D01*
X49435000Y-30911000D02*
X48538000Y-30911000D01*
X46458000Y-30871000D02*
X45527000Y-30871000D01*
X49469000Y-30871000D02*
X48538000Y-30871000D01*
X46458000Y-30831000D02*
X45494000Y-30831000D01*
X49502000Y-30831000D02*
X48538000Y-30831000D01*
X46458000Y-30791000D02*
X45463000Y-30791000D01*
X49533000Y-30791000D02*
X48538000Y-30791000D01*
X46458000Y-30751000D02*
X45433000Y-30751000D01*
X49563000Y-30751000D02*
X48538000Y-30751000D01*
X46458000Y-30711000D02*
X45403000Y-30711000D01*
X49593000Y-30711000D02*
X48538000Y-30711000D01*
X46458000Y-30671000D02*
X45376000Y-30671000D01*
X49620000Y-30671000D02*
X48538000Y-30671000D01*
X46458000Y-30631000D02*
X45349000Y-30631000D01*
X49647000Y-30631000D02*
X48538000Y-30631000D01*
X46458000Y-30591000D02*
X45323000Y-30591000D01*
X49673000Y-30591000D02*
X48538000Y-30591000D01*
X46458000Y-30551000D02*
X45298000Y-30551000D01*
X49698000Y-30551000D02*
X48538000Y-30551000D01*
X46458000Y-30511000D02*
X45274000Y-30511000D01*
X49722000Y-30511000D02*
X48538000Y-30511000D01*
X46458000Y-30471000D02*
X45251000Y-30471000D01*
X49745000Y-30471000D02*
X48538000Y-30471000D01*
X46458000Y-30431000D02*
X45230000Y-30431000D01*
X49766000Y-30431000D02*
X48538000Y-30431000D01*
X46458000Y-30391000D02*
X45208000Y-30391000D01*
X49788000Y-30391000D02*
X48538000Y-30391000D01*
X46458000Y-30351000D02*
X45188000Y-30351000D01*
X49808000Y-30351000D02*
X48538000Y-30351000D01*
X46458000Y-30311000D02*
X45169000Y-30311000D01*
X49827000Y-30311000D02*
X48538000Y-30311000D01*
X46458000Y-30271000D02*
X45150000Y-30271000D01*
X49846000Y-30271000D02*
X48538000Y-30271000D01*
X46458000Y-30231000D02*
X45133000Y-30231000D01*
X49863000Y-30231000D02*
X48538000Y-30231000D01*
X46458000Y-30191000D02*
X45116000Y-30191000D01*
X49880000Y-30191000D02*
X48538000Y-30191000D01*
X46458000Y-30151000D02*
X45100000Y-30151000D01*
X49896000Y-30151000D02*
X48538000Y-30151000D01*
X46458000Y-30111000D02*
X45084000Y-30111000D01*
X49912000Y-30111000D02*
X48538000Y-30111000D01*
X46458000Y-30071000D02*
X45070000Y-30071000D01*
X49926000Y-30071000D02*
X48538000Y-30071000D01*
X46458000Y-30031000D02*
X45056000Y-30031000D01*
X49940000Y-30031000D02*
X48538000Y-30031000D01*
X46458000Y-29991000D02*
X45043000Y-29991000D01*
X49953000Y-29991000D02*
X48538000Y-29991000D01*
X46458000Y-29951000D02*
X45030000Y-29951000D01*
X49966000Y-29951000D02*
X48538000Y-29951000D01*
X46458000Y-29911000D02*
X45018000Y-29911000D01*
X49978000Y-29911000D02*
X48538000Y-29911000D01*
X46458000Y-29870000D02*
X45007000Y-29870000D01*
X49989000Y-29870000D02*
X48538000Y-29870000D01*
X46458000Y-29830000D02*
X44997000Y-29830000D01*
X49999000Y-29830000D02*
X48538000Y-29830000D01*
X46458000Y-29790000D02*
X44987000Y-29790000D01*
X50009000Y-29790000D02*
X48538000Y-29790000D01*
X46458000Y-29750000D02*
X44978000Y-29750000D01*
X50018000Y-29750000D02*
X48538000Y-29750000D01*
X46458000Y-29710000D02*
X44970000Y-29710000D01*
X50026000Y-29710000D02*
X48538000Y-29710000D01*
X46458000Y-29670000D02*
X44962000Y-29670000D01*
X50034000Y-29670000D02*
X48538000Y-29670000D01*
X46458000Y-29630000D02*
X44955000Y-29630000D01*
X50041000Y-29630000D02*
X48538000Y-29630000D01*
X46458000Y-29590000D02*
X44948000Y-29590000D01*
X50048000Y-29590000D02*
X48538000Y-29590000D01*
X46458000Y-29550000D02*
X44942000Y-29550000D01*
X50054000Y-29550000D02*
X48538000Y-29550000D01*
X46458000Y-29510000D02*
X44937000Y-29510000D01*
X50059000Y-29510000D02*
X48538000Y-29510000D01*
X46458000Y-29470000D02*
X44933000Y-29470000D01*
X50063000Y-29470000D02*
X48538000Y-29470000D01*
X46458000Y-29430000D02*
X44929000Y-29430000D01*
X50067000Y-29430000D02*
X48538000Y-29430000D01*
X50071000Y-29390000D02*
X44925000Y-29390000D01*
X50074000Y-29350000D02*
X44922000Y-29350000D01*
X50076000Y-29310000D02*
X44920000Y-29310000D01*
X50077000Y-29270000D02*
X44919000Y-29270000D01*
X50078000Y-29230000D02*
X44918000Y-29230000D01*
X50078000Y-29190000D02*
X44918000Y-29190000D01*
X50118000Y-29190000D02*
G75*
G03X50118000Y-29190000I-2620000J0D01*
G01*
D12*
X53310095Y-25908380D02*
X53310095Y-26717904D01*
X53357714Y-26813142D01*
X53405333Y-26860761D01*
X53500571Y-26908380D01*
X53691047Y-26908380D01*
X53786285Y-26860761D01*
X53833904Y-26813142D01*
X53881523Y-26717904D01*
X53881523Y-25908380D01*
X54881523Y-26908380D02*
X54310095Y-26908380D01*
X54595809Y-26908380D02*
X54595809Y-25908380D01*
X54500571Y-26051238D01*
X54405333Y-26146476D01*
X54310095Y-26194095D01*
X63333333Y-30312380D02*
X63000000Y-29836190D01*
X62761904Y-30312380D02*
X62761904Y-29312380D01*
X63142857Y-29312380D01*
X63238095Y-29360000D01*
X63285714Y-29407619D01*
X63333333Y-29502857D01*
X63333333Y-29645714D01*
X63285714Y-29740952D01*
X63238095Y-29788571D01*
X63142857Y-29836190D01*
X62761904Y-29836190D01*
X64285714Y-30312380D02*
X63714285Y-30312380D01*
X64000000Y-30312380D02*
X64000000Y-29312380D01*
X63904761Y-29455238D01*
X63809523Y-29550476D01*
X63714285Y-29598095D01*
X40814666Y-32262380D02*
X40814666Y-32976666D01*
X40767047Y-33119523D01*
X40671809Y-33214761D01*
X40528952Y-33262380D01*
X40433714Y-33262380D01*
X41814666Y-33262380D02*
X41243238Y-33262380D01*
X41528952Y-33262380D02*
X41528952Y-32262380D01*
X41433714Y-32405238D01*
X41338476Y-32500476D01*
X41243238Y-32548095D01*
X64432380Y-37568095D02*
X63432380Y-37568095D01*
X63432380Y-37330000D01*
X63480000Y-37187142D01*
X63575238Y-37091904D01*
X63670476Y-37044285D01*
X63860952Y-36996666D01*
X64003809Y-36996666D01*
X64194285Y-37044285D01*
X64289523Y-37091904D01*
X64384761Y-37187142D01*
X64432380Y-37330000D01*
X64432380Y-37568095D01*
X64432380Y-36044285D02*
X64432380Y-36615714D01*
X64432380Y-36330000D02*
X63432380Y-36330000D01*
X63575238Y-36425238D01*
X63670476Y-36520476D01*
X63718095Y-36615714D01*
X65067142Y-36976666D02*
X65114761Y-37024285D01*
X65162380Y-37167142D01*
X65162380Y-37262380D01*
X65114761Y-37405238D01*
X65019523Y-37500476D01*
X64924285Y-37548095D01*
X64733809Y-37595714D01*
X64590952Y-37595714D01*
X64400476Y-37548095D01*
X64305238Y-37500476D01*
X64210000Y-37405238D01*
X64162380Y-37262380D01*
X64162380Y-37167142D01*
X64210000Y-37024285D01*
X64257619Y-36976666D01*
X64162380Y-36643333D02*
X64162380Y-36024285D01*
X64543333Y-36357619D01*
X64543333Y-36214761D01*
X64590952Y-36119523D01*
X64638571Y-36071904D01*
X64733809Y-36024285D01*
X64971904Y-36024285D01*
X65067142Y-36071904D01*
X65114761Y-36119523D01*
X65162380Y-36214761D01*
X65162380Y-36500476D01*
X65114761Y-36595714D01*
X65067142Y-36643333D01*
X57447142Y-36976666D02*
X57494761Y-37024285D01*
X57542380Y-37167142D01*
X57542380Y-37262380D01*
X57494761Y-37405238D01*
X57399523Y-37500476D01*
X57304285Y-37548095D01*
X57113809Y-37595714D01*
X56970952Y-37595714D01*
X56780476Y-37548095D01*
X56685238Y-37500476D01*
X56590000Y-37405238D01*
X56542380Y-37262380D01*
X56542380Y-37167142D01*
X56590000Y-37024285D01*
X56637619Y-36976666D01*
X56637619Y-36595714D02*
X56590000Y-36548095D01*
X56542380Y-36452857D01*
X56542380Y-36214761D01*
X56590000Y-36119523D01*
X56637619Y-36071904D01*
X56732857Y-36024285D01*
X56828095Y-36024285D01*
X56970952Y-36071904D01*
X57542380Y-36643333D01*
X57542380Y-36024285D01*
X51605142Y-29356666D02*
X51652761Y-29404285D01*
X51700380Y-29547142D01*
X51700380Y-29642380D01*
X51652761Y-29785238D01*
X51557523Y-29880476D01*
X51462285Y-29928095D01*
X51271809Y-29975714D01*
X51128952Y-29975714D01*
X50938476Y-29928095D01*
X50843238Y-29880476D01*
X50748000Y-29785238D01*
X50700380Y-29642380D01*
X50700380Y-29547142D01*
X50748000Y-29404285D01*
X50795619Y-29356666D01*
X51700380Y-28404285D02*
X51700380Y-28975714D01*
X51700380Y-28690000D02*
X50700380Y-28690000D01*
X50843238Y-28785238D01*
X50938476Y-28880476D01*
X50986095Y-28975714D01*
M02*
